<svg width="50" height="50" viewBox="0 0 50 50" fill="none" xmlns="http://www.w3.org/2000/svg">
<g clip-path="url(#clip0_540_872)">
<path d="M11.6803 48.43C11.5903 48.43 11.5003 48.43 11.4103 48.42C10.7503 48.35 10.1603 48.03 9.7403 47.51L0.550302 36.11C0.130302 35.59 -0.0596976 34.95 0.0103024 34.29C0.0803024 33.63 0.400302 33.04 0.920302 32.62L3.3703 30.64C4.4403 29.78 6.0003 29.95 6.8603 31.01L16.0503 42.4C16.9103 43.47 16.7403 45.03 15.6803 45.89L13.2303 47.87C12.7803 48.23 12.2403 48.42 11.6703 48.42L11.6803 48.43ZM4.9403 32.05C4.8203 32.05 4.7103 32.09 4.6103 32.17L2.1603 34.15C2.0503 34.24 1.9803 34.36 1.9703 34.5C1.9603 34.64 2.0003 34.78 2.0803 34.88L11.2703 46.27C11.3603 46.38 11.4803 46.45 11.6203 46.46C11.7603 46.47 11.9003 46.43 12.0003 46.35L14.4503 44.37C14.5603 44.28 14.6303 44.16 14.6403 44.02C14.6503 43.88 14.6103 43.74 14.5303 43.64L5.3403 32.25C5.2403 32.12 5.0903 32.06 4.9303 32.06L4.9403 32.05Z" fill="white"/>
<path d="M38.3201 48.4203C37.7701 48.4203 37.2201 48.2403 36.7601 47.8703L34.3101 45.8903C33.2401 45.0302 33.0801 43.4603 33.9401 42.4003L43.1301 31.0103C43.9901 29.9403 45.5601 29.7802 46.6201 30.6402L49.0701 32.6203C49.5901 33.0403 49.9101 33.6302 49.9801 34.2902C50.0501 34.9502 49.8601 35.6003 49.4401 36.1103L40.2501 47.5002C39.7601 48.1103 39.0401 48.4203 38.3101 48.4203H38.3201ZM45.0601 32.0503C44.9101 32.0503 44.7601 32.1202 44.6501 32.2402L35.4601 43.6302C35.3701 43.7402 35.3301 43.8803 35.3501 44.0103C35.3601 44.1503 35.4301 44.2703 35.5401 44.3603L37.9901 46.3403C38.2101 46.5203 38.5401 46.4903 38.7301 46.2603L47.9201 34.8703C48.0101 34.7603 48.0501 34.6202 48.0301 34.4902C48.0201 34.3502 47.9501 34.2302 47.8401 34.1402L45.3901 32.1603C45.2901 32.0803 45.1801 32.0402 45.0601 32.0402V32.0503Z" fill="white"/>
<path d="M15.6001 44.6401C15.3101 44.6401 15.0301 44.5101 14.8301 44.2701C14.4901 43.8501 14.5601 43.2301 14.9801 42.8901C15.1201 42.7801 18.4701 40.1201 22.9901 39.8301C27.2901 39.5501 28.2001 38.9101 28.8701 38.4501C29.5001 38.0101 35.7801 33.1001 40.9701 29.0201C41.2001 28.8401 41.3801 28.6301 41.4901 28.4101C41.6301 28.1301 42.0701 27.2601 40.1901 26.1701C39.9601 26.0401 39.8001 25.8201 39.7301 25.5601C39.6601 25.3001 39.7101 25.0301 39.8401 24.8101C39.8401 24.8101 40.1401 24.2901 40.1701 23.6401C40.2001 22.8501 39.8201 22.2001 39.0001 21.6601C38.7601 21.5001 38.5901 21.2401 38.5601 20.9501C38.5301 20.6601 38.6301 20.3701 38.8301 20.1701C38.8301 20.1701 39.3601 19.5801 39.2301 18.9501C39.1201 18.3901 38.5001 17.8201 37.4301 17.3201C36.9801 17.1101 36.7601 16.6001 36.9201 16.1301C36.9201 16.1201 37.3901 14.5701 36.5501 13.9801C35.7901 13.4401 33.8101 13.1601 31.1301 13.7701C30.8601 13.8301 30.5301 13.9301 30.1801 14.0601C30.1501 14.0701 30.1301 14.0801 30.1001 14.0901C29.0701 14.4701 27.7701 15.0701 26.5101 15.6501C25.4301 16.1501 24.4101 16.6201 23.5301 16.9701C21.3001 17.8501 19.7501 18.3401 17.9101 18.3701C16.3801 18.4001 14.5301 17.1701 14.1801 15.8901C13.9901 15.1801 14.2501 14.5201 14.8801 14.1601C15.0901 14.0401 15.3101 13.9201 15.5501 13.8001C16.4301 13.3401 17.5201 12.7701 19.0601 11.3901C20.2001 10.3701 21.0001 9.78007 21.9101 9.59007C22.9201 9.38007 23.8701 9.70007 25.0901 10.2801C26.9601 11.1801 27.9401 11.6601 29.7701 12.1201C30.1101 12.0001 30.4301 11.9101 30.7101 11.8401C31.8201 11.5901 35.6201 10.8801 37.7001 12.3601C39.0701 13.3301 39.1001 14.9201 38.9701 15.8901C40.2301 16.6201 40.9701 17.5301 41.1701 18.5801C41.3201 19.3901 41.1101 20.1001 40.8601 20.6201C41.9901 21.7001 42.1901 22.9201 42.1301 23.8201C42.1001 24.2401 42.0101 24.6301 41.9101 24.9401C44.2101 26.6501 43.6401 28.5101 43.2501 29.2801C43.0101 29.7601 42.6501 30.1901 42.1901 30.5501C39.5401 32.6301 30.8401 39.4701 30.0001 40.0501C28.9301 40.7901 27.6001 41.4801 23.1301 41.7701C19.2401 42.0301 16.2401 44.3801 16.2101 44.4101C16.0301 44.5501 15.8101 44.6201 15.6001 44.6201V44.6401ZM16.2801 15.6301C16.6101 15.9701 17.2901 16.4201 17.8901 16.4001C19.2601 16.3801 20.5001 16.0601 22.8201 15.1401C23.6501 14.8101 24.6501 14.3501 25.7001 13.8601C26.1201 13.6701 26.5401 13.4701 26.9601 13.2801C26.1101 12.9501 25.3001 12.5501 24.2401 12.0401C22.4301 11.1701 22.2101 11.2101 20.3801 12.8401C18.6501 14.3801 17.3901 15.0401 16.4701 15.5201C16.4101 15.5501 16.3401 15.5901 16.2801 15.6201V15.6301Z" fill="white"/>
<path d="M33.0303 19.0898C32.6803 19.0898 32.3403 18.8998 32.1603 18.5698C31.9103 18.0898 32.0903 17.4998 32.5703 17.2498C32.7003 17.1798 35.6803 15.6198 37.7903 15.4598C38.3303 15.4198 38.8003 15.8198 38.8403 16.3598C38.8803 16.8998 38.4803 17.3698 37.9403 17.4098C36.5303 17.5198 34.2403 18.5798 33.4803 18.9798C33.3303 19.0598 33.1803 19.0898 33.0203 19.0898H33.0303Z" fill="white"/>
<path d="M35.0098 23.5703C34.6598 23.5703 34.3198 23.3803 34.1398 23.0403C33.8898 22.5603 34.0698 21.9703 34.5498 21.7203C34.6598 21.6603 37.3598 20.2603 39.3598 19.8803C39.8898 19.7803 40.3998 20.1303 40.5098 20.6603C40.6098 21.1903 40.2598 21.7003 39.7298 21.8103C38.0098 22.1403 35.4898 23.4503 35.4598 23.4603C35.3098 23.5403 35.1598 23.5703 35.0098 23.5703Z" fill="white"/>
<path d="M36.4705 28.3597C36.1405 28.3597 35.8105 28.1897 35.6305 27.8897C35.3505 27.4297 35.5005 26.8197 35.9605 26.5397C36.0705 26.4697 38.7905 24.8397 40.4205 24.3697C40.9405 24.2197 41.4805 24.5197 41.6305 25.0397C41.7805 25.5597 41.4805 26.0997 40.9605 26.2497C39.8205 26.5797 37.7005 27.7797 36.9805 28.2097C36.8205 28.3097 36.6505 28.3497 36.4805 28.3497L36.4705 28.3597Z" fill="white"/>
<path d="M43.9002 32.6104C43.7802 32.6104 43.6502 32.5904 43.5302 32.5404C43.4702 32.5204 42.0502 31.9304 40.8302 30.4104C40.4902 29.9904 40.5602 29.3704 40.9802 29.0304C41.4002 28.6904 42.0202 28.7604 42.3602 29.1804C43.2502 30.2904 44.2702 30.7304 44.2802 30.7304C44.7802 30.9304 45.0202 31.5104 44.8102 32.0104C44.6502 32.3904 44.2902 32.6204 43.9002 32.6204V32.6104Z" fill="white"/>
<path d="M34.7002 43.9998C34.5302 43.9998 34.3602 43.9598 34.2102 43.8698C34.1502 43.8398 30.1102 41.5098 26.0502 41.4698C25.5102 41.4698 25.0702 41.0198 25.0802 40.4798C25.0802 39.9398 25.5202 39.5098 26.0602 39.5098C30.6602 39.5598 35.0102 42.0698 35.1902 42.1798C35.6602 42.4498 35.8102 43.0498 35.5402 43.5198C35.3602 43.8298 35.0302 44.0098 34.6902 44.0098L34.7002 43.9998Z" fill="white"/>
<path d="M17.74 22.4504C16.87 22.4504 15.91 22.1104 15.01 21.7504C14.71 21.6304 14.38 21.5004 14.02 21.3704C12.2 20.6904 10.13 19.9204 9.60001 18.3604C9.43001 17.8704 9.35001 17.0804 9.93001 16.1304C10.68 14.9104 11.91 14.1704 13.49 13.9804C14.6 13.8504 15.49 14.0304 15.59 14.0504C16.12 14.1704 16.45 14.6904 16.34 15.2204C16.22 15.7504 15.7 16.0804 15.18 15.9704C15.16 15.9704 14.48 15.8304 13.68 15.9304C12.72 16.0604 12.03 16.4704 11.6 17.1604C11.38 17.5204 11.43 17.6804 11.45 17.7304C11.68 18.4104 13.5 19.0904 14.71 19.5404C15.08 19.6804 15.42 19.8104 15.75 19.9404C17.97 20.8504 18.15 20.4804 18.4 19.9804C18.57 19.6404 18.5 19.5404 18.36 19.3604C18.01 18.9504 17.18 18.4604 16.41 18.0404C15.94 17.7804 15.76 17.1804 16.02 16.7104C16.28 16.2404 16.88 16.0604 17.35 16.3204C18.51 16.9604 19.33 17.4804 19.86 18.1004C20.54 18.9104 20.64 19.8504 20.16 20.8404C19.57 22.0504 18.7 22.4604 17.75 22.4604L17.74 22.4504Z" fill="white"/>
<path d="M16.5401 26.4597C15.6901 26.4597 14.6701 26.2497 13.4701 25.9897C10.8701 25.4397 9.41015 24.9097 8.58015 24.1997C7.60015 23.3597 7.60015 22.4097 7.61015 21.6397C7.61015 21.5797 7.61015 21.5197 7.61015 21.4697C7.61015 20.5097 8.20015 19.6297 9.34015 18.8397C10.0701 18.3297 10.8101 18.0397 10.8401 18.0197C11.3401 17.8197 11.9101 18.0597 12.1201 18.5597C12.3201 19.0597 12.0802 19.6297 11.5801 19.8397C10.6301 20.2297 9.57015 21.0097 9.57015 21.4797C9.57015 21.5397 9.57015 21.6097 9.57015 21.6697C9.57015 22.3497 9.59015 22.4997 9.85015 22.7197C10.3901 23.1797 11.7401 23.6297 13.8801 24.0797C17.1402 24.7597 17.2201 24.5797 17.6401 23.7197C17.7501 23.4797 17.7201 23.3397 17.6701 23.2197C17.4701 22.7797 16.7201 22.2997 15.8901 22.0797C15.3701 21.9397 15.0601 21.3997 15.2001 20.8797C15.3401 20.3597 15.8801 20.0497 16.4001 20.1897C16.9501 20.3397 18.7802 20.9297 19.4602 22.3997C19.7802 23.0997 19.7701 23.8397 19.4201 24.5697C18.7301 26.0197 17.8102 26.4697 16.5602 26.4697L16.5401 26.4597Z" fill="white"/>
<path d="M14.8502 29.9298C14.7102 29.9298 14.5702 29.9298 14.4302 29.9098C11.2102 29.5498 7.4502 28.2998 7.4502 25.9698C7.4502 24.1998 8.9302 23.2998 9.8102 23.0498L10.3502 24.9298C10.3102 24.9298 9.4002 25.2298 9.4002 25.9698C9.4002 26.7098 11.1802 27.5798 14.6402 27.9698C15.2002 28.0298 15.5902 27.8398 15.8002 27.4098C16.0002 26.9898 15.9602 26.4198 15.7102 26.1798C15.3302 25.7998 15.3202 25.1798 15.7102 24.7898C16.0902 24.4098 16.7102 24.3998 17.1002 24.7898C17.9502 25.6398 18.1502 27.0598 17.5702 28.2598C17.0502 29.3398 16.0502 29.9498 14.8402 29.9498L14.8502 29.9298Z" fill="white"/>
<path d="M10.9503 32.6798C10.5703 32.6798 10.1503 32.6298 9.68026 32.5198C8.19026 32.1698 7.24026 31.6098 6.79026 30.7998C6.28026 29.8898 6.58026 28.9798 6.70026 28.6398C7.19026 27.1698 8.67026 26.6098 9.47026 26.5098L9.71026 28.4598C9.71026 28.4598 8.77026 28.5998 8.55026 29.2698C8.42026 29.6498 8.45026 29.7798 8.49026 29.8598C8.55026 29.9598 8.83026 30.3198 10.1203 30.6198C10.6903 30.7598 11.4803 30.8298 11.9403 30.4098C12.2803 30.0998 12.4303 29.5498 12.3403 28.8898C12.2703 28.3498 12.6503 27.8598 13.1803 27.7898C13.7203 27.7198 14.2103 28.0998 14.2803 28.6298C14.4503 29.9298 14.0803 31.1098 13.2503 31.8598C12.8003 32.2698 12.0603 32.6898 10.9403 32.6898L10.9503 32.6798Z" fill="white"/>
<path d="M6.40953 32.5602L5.78953 30.7002C5.78953 30.7002 5.78953 30.7002 5.76953 30.7002C5.76953 30.7002 6.27953 30.4902 6.90953 29.7302C7.25953 29.3102 7.86953 29.2502 8.28953 29.6002C8.70953 29.9502 8.76953 30.5602 8.41953 30.9802C7.43953 32.1602 6.56953 32.4902 6.40953 32.5502V32.5602Z" fill="white"/>
<path d="M23.02 7.82031C22.48 7.82031 22.04 7.38031 22.04 6.84031V2.55031C22.04 2.01031 22.48 1.57031 23.02 1.57031C23.56 1.57031 24 2.01031 24 2.55031V6.83031C24 7.37031 23.56 7.81031 23.02 7.81031V7.82031Z" fill="white"/>
<path d="M27.1897 8.47017C27.0397 8.47017 26.8897 8.44017 26.7497 8.37017C26.2697 8.13017 26.0697 7.54017 26.3097 7.06017L28.2197 3.23017C28.4597 2.75017 29.0497 2.55017 29.5297 2.79017C30.0097 3.03017 30.2097 3.62017 29.9697 4.10017L28.0597 7.93017C27.8897 8.27017 27.5397 8.47017 27.1797 8.47017H27.1897Z" fill="white"/>
<path d="M30.8699 11.3698C30.5999 11.3698 30.3399 11.2598 30.1399 11.0498C29.7799 10.6498 29.8099 10.0298 30.2099 9.66983L33.6599 6.55983C34.0599 6.19983 34.6799 6.22983 35.0399 6.62983C35.3999 7.02983 35.3699 7.64983 34.9699 8.00983L31.5199 11.1198C31.3299 11.2898 31.0999 11.3698 30.8599 11.3698H30.8699Z" fill="white"/>
<path d="M18.8497 8.47017C18.4897 8.47017 18.1397 8.27017 17.9697 7.93017L16.0597 4.10017C15.8197 3.62017 16.0197 3.03017 16.4997 2.79017C16.9797 2.55017 17.5697 2.75017 17.8097 3.23017L19.7197 7.06017C19.9597 7.54017 19.7597 8.13017 19.2797 8.37017C19.1397 8.44017 18.9897 8.47017 18.8397 8.47017H18.8497Z" fill="white"/>
<path d="M15.1695 11.3698C14.9395 11.3698 14.6995 11.2898 14.5095 11.1198L11.0595 8.00983C10.6595 7.64983 10.6295 7.02983 10.9895 6.62983C11.3495 6.22983 11.9695 6.19983 12.3695 6.55983L15.8195 9.66983C16.2195 10.0298 16.2495 10.6498 15.8895 11.0498C15.6995 11.2598 15.4295 11.3698 15.1595 11.3698H15.1695Z" fill="white"/>
</g>
<defs>
<clipPath id="clip0_540_872">
<rect width="50" height="50" fill="white"/>
</clipPath>
</defs>
</svg>
