<svg width="50" height="50" viewBox="0 0 50 50" fill="none" xmlns="http://www.w3.org/2000/svg">
<g clip-path="url(#clip0_540_910)">
<path d="M26.38 49.75C20.08 49.75 14.16 47.3 9.7 42.86C5.24 38.42 2.78 32.51 2.75 26.21C2.75 25.91 2.87 25.62 3.08 25.4C3.29 25.19 3.58 25.07 3.88 25.07H25.23V3.64C25.23 3.01 25.74 2.5 26.37 2.5C32.68 2.5 38.61 4.96 43.07 9.42C47.53 13.88 49.99 19.81 49.99 26.12C49.99 32.43 49.99 26.19 49.99 26.22C49.96 32.51 47.5 38.41 43.04 42.85C38.58 47.29 32.66 49.74 26.36 49.74L26.38 49.75ZM5.06 27.35C5.35 32.61 7.55 37.51 11.3 41.25C15.33 45.27 20.68 47.48 26.37 47.48C32.06 47.48 37.41 45.27 41.44 41.25C45.47 37.23 47.7 31.89 47.72 26.21C47.72 26.2 47.72 26.19 47.72 26.17C47.72 26.16 47.72 26.14 47.72 26.13C47.72 20.43 45.5 15.07 41.47 11.03C37.71 7.27 32.79 5.08 27.51 4.81V26.21C27.51 26.84 27 27.35 26.37 27.35H5.06Z" fill="white"/>
<path d="M26.3798 49.75C21.6598 49.75 17.5498 44.48 15.6398 36.01C14.9498 32.93 14.5898 29.64 14.5898 26.21C14.5898 25.91 14.7098 25.62 14.9198 25.41C15.1298 25.2 15.4198 25.08 15.7198 25.08H25.2398V3.64C25.2398 3.01 25.7498 2.5 26.3798 2.5C31.0998 2.5 35.2098 7.77 37.1198 16.24C37.8198 19.35 38.1698 22.67 38.1698 26.12V26.2C38.1698 29.63 37.8098 32.92 37.1198 36C35.2098 44.48 31.0998 49.74 26.3798 49.74V49.75ZM16.8698 27.35C16.9398 30.2 17.2698 32.94 17.8498 35.51C18.6698 39.15 19.9398 42.21 21.5198 44.36C22.5598 45.78 24.2498 47.47 26.3698 47.47C28.4898 47.47 30.1798 45.78 31.2198 44.36C32.7998 42.21 34.0698 39.14 34.8898 35.51C35.5498 32.6 35.8798 29.47 35.8898 26.21V26.13C35.8898 22.85 35.5498 19.69 34.8898 16.75C34.0698 13.11 32.7998 10.05 31.2198 7.9C30.3698 6.74 29.0898 5.41 27.4998 4.95V26.22C27.4998 26.85 26.9898 27.36 26.3598 27.36H16.8598L16.8698 27.35Z" fill="white"/>
<path d="M26.3798 37.9201C22.9298 37.9201 19.5998 37.5701 16.4998 36.8701C8.09977 34.9801 2.83977 30.9001 2.75977 26.2301C2.75977 25.9301 2.86977 25.6301 3.08977 25.4101C3.29977 25.1901 3.59977 25.0701 3.89977 25.0701H25.2498V15.4701C25.2498 14.8401 25.7598 14.3301 26.3898 14.3301C29.8398 14.3301 33.1698 14.6801 36.2698 15.3801C44.7498 17.2901 50.0098 21.4001 50.0098 26.1201C50.0098 30.8401 50.0098 26.1901 50.0098 26.2301C49.9298 30.9001 44.6598 34.9701 36.2698 36.8601C33.1698 37.5601 29.8398 37.9101 26.3898 37.9101L26.3798 37.9201ZM5.20977 27.3501C5.68977 28.9201 7.02977 30.1801 8.17977 31.0101C10.3298 32.5801 13.3798 33.8401 16.9898 34.6501C19.9298 35.3101 23.0898 35.6501 26.3698 35.6501C29.6498 35.6501 32.8098 35.3101 35.7498 34.6501C39.3598 33.8401 42.4098 32.5801 44.5598 31.0101C45.9798 29.9801 47.6798 28.3001 47.7098 26.1901C47.7098 26.1901 47.7098 26.1801 47.7098 26.1701C47.7098 26.1601 47.7098 26.1401 47.7098 26.1301C47.7098 24.0101 46.0198 22.3201 44.5998 21.2801C42.4498 19.7001 39.3798 18.4301 35.7498 17.6101C33.1498 17.0301 30.3798 16.7001 27.4998 16.6301V26.2201C27.4998 26.8501 26.9898 27.3601 26.3598 27.3601H5.20977V27.3501Z" fill="white"/>
<path d="M26.3802 49.75C25.7502 49.75 25.2402 49.24 25.2402 48.61V3.64C25.2402 3.01 25.7502 2.5 26.3802 2.5C27.0102 2.5 27.5202 3.01 27.5202 3.64V48.61C27.5202 49.24 27.0102 49.75 26.3802 49.75Z" fill="white"/>
<path d="M48.86 27.3503H3.89C3.26 27.3503 2.75 26.8403 2.75 26.2103C2.75 25.5803 3.26 25.0703 3.89 25.0703H48.86C49.49 25.0703 50 25.5803 50 26.2103C50 26.8403 49.49 27.3503 48.86 27.3503Z" fill="white"/>
<path d="M17.0095 21.5696C16.5395 21.5696 16.1095 21.2796 15.9395 20.8196C15.7295 20.2296 16.0395 19.5796 16.6195 19.3696C16.8295 19.2896 21.3995 17.5396 21.3995 12.1096C21.3995 8.57957 19.1995 5.66957 17.5295 3.96957C17.3195 4.78957 16.8995 5.69957 16.1595 6.62958C15.6595 7.24958 15.1295 7.82957 14.6195 8.38958C13.5995 9.50957 12.5495 10.6596 12.5495 11.3796C12.5495 12.0096 12.0395 12.5196 11.4095 12.5196C10.7795 12.5196 10.2695 12.0096 10.2695 11.3796C10.2695 9.76958 11.5595 8.35957 12.9395 6.84957C13.4295 6.31957 13.9295 5.76957 14.3795 5.19957C15.8395 3.38957 15.3495 2.02957 15.2895 1.87957C15.0395 1.41957 15.1595 0.869574 15.5495 0.519574C15.9395 0.169574 16.5395 0.159575 16.9695 0.459575C17.2395 0.649575 23.6595 5.22957 23.6595 12.0996C23.6595 15.7896 21.9595 18.1496 20.5295 19.4796C18.9895 20.9096 17.4395 21.4796 17.3695 21.4996C17.2395 21.5496 17.1095 21.5696 16.9895 21.5696H17.0095Z" fill="white"/>
<path d="M11.4199 23.9703C9.87988 23.9703 8.02988 23.5803 6.07988 22.3103C0.77988 18.8603 0.0298803 11.5003 -0.000119729 11.1803C-0.0501197 10.6703 0.22988 10.1803 0.70988 10.0003C1.17988 9.82029 1.69988 9.95029 2.00988 10.3503C2.11988 10.4703 3.17988 11.5403 5.60988 11.3003C6.12988 11.2503 6.79988 11.0903 7.50988 10.9203C10.1599 10.2803 14.1699 9.32029 17.2399 12.8203C20.0899 16.0703 18.9499 19.6403 17.9499 21.0803C17.2999 22.0203 15.6899 23.2003 13.5699 23.7103C12.9599 23.8603 12.2299 23.9703 11.4199 23.9703ZM2.72988 13.3003C3.31988 15.4703 4.60988 18.6503 7.30988 20.4103C8.76988 21.3603 10.1699 21.7003 11.4199 21.7003C13.8399 21.7003 15.6499 20.4003 16.0799 19.7903C16.7299 18.8603 17.4499 16.5103 15.5299 14.3203C13.3599 11.8503 10.5399 12.5303 8.03988 13.1303C7.24988 13.3203 6.50988 13.5003 5.82988 13.5603C4.56988 13.6803 3.54988 13.5403 2.72988 13.2903V13.3003Z" fill="white"/>
<path d="M16.9899 21.41C16.5399 21.41 16.1099 21.14 15.9299 20.69C15.3599 19.22 14.3099 18.37 12.7399 18.07C11.4699 17.83 10.3299 18.07 10.3199 18.07C9.7099 18.2 9.0999 17.82 8.9699 17.21C8.8299 16.6 9.2199 15.99 9.8299 15.86C9.8899 15.85 11.3699 15.52 13.0799 15.82C15.4699 16.24 17.1899 17.64 18.0499 19.86C18.2799 20.44 17.9899 21.1 17.3999 21.33C17.2599 21.38 17.1199 21.41 16.9899 21.41Z" fill="white"/>
</g>
<defs>
<clipPath id="clip0_540_910">
<rect width="50" height="50" fill="white"/>
</clipPath>
</defs>
</svg>
