<svg width="40" height="40" viewBox="0 0 40 40" fill="none" xmlns="http://www.w3.org/2000/svg">
<rect width="40" height="40" transform="matrix(-1 0 0 1 40 0)" fill="#314A70"/>
<path d="M15 19.5C14.7239 19.5 14.5 19.7239 14.5 20C14.5 20.2761 14.7239 20.5 15 20.5L15 19.5ZM25.3536 20.3536C25.5488 20.1583 25.5488 19.8417 25.3536 19.6464L22.1716 16.4645C21.9763 16.2692 21.6597 16.2692 21.4645 16.4645C21.2692 16.6597 21.2692 16.9763 21.4645 17.1716L24.2929 20L21.4645 22.8284C21.2692 23.0237 21.2692 23.3403 21.4645 23.5355C21.6597 23.7308 21.9763 23.7308 22.1716 23.5355L25.3536 20.3536ZM15 20L15 20.5L25 20.5L25 20L25 19.5L15 19.5L15 20Z" fill="white"/>
</svg>
