<svg width="40" height="40" viewBox="0 0 40 40" fill="none" xmlns="http://www.w3.org/2000/svg">
<rect width="40" height="40" fill="#C6C6C6"/>
<path d="M25 19.5C25.2761 19.5 25.5 19.7239 25.5 20C25.5 20.2761 25.2761 20.5 25 20.5L25 19.5ZM14.6464 20.3536C14.4512 20.1583 14.4512 19.8417 14.6464 19.6464L17.8284 16.4645C18.0237 16.2692 18.3403 16.2692 18.5355 16.4645C18.7308 16.6597 18.7308 16.9763 18.5355 17.1716L15.7071 20L18.5355 22.8284C18.7308 23.0237 18.7308 23.3403 18.5355 23.5355C18.3403 23.7308 18.0237 23.7308 17.8284 23.5355L14.6464 20.3536ZM25 20L25 20.5L15 20.5L15 20L15 19.5L25 19.5L25 20Z" fill="white"/>
</svg>
