<svg width="10" height="8" viewBox="0 0 10 8" fill="none" xmlns="http://www.w3.org/2000/svg">
<path d="M8.5 3.5C8.22386 3.5 8 3.72386 8 4C8 4.27614 8.22386 4.5 8.5 4.5L8.5 3.5ZM9.35355 4.35355C9.54882 4.15829 9.54882 3.84171 9.35355 3.64645L6.17157 0.464465C5.97631 0.269203 5.65973 0.269203 5.46447 0.464465C5.2692 0.659727 5.2692 0.97631 5.46447 1.17157L8.29289 4L5.46447 6.82843C5.2692 7.02369 5.2692 7.34027 5.46447 7.53553C5.65973 7.7308 5.97631 7.7308 6.17157 7.53553L9.35355 4.35355ZM8.5 4L8.5 4.5L9 4.5L9 4L9 3.5L8.5 3.5L8.5 4Z" fill="#FFFAEE"/>
<path d="M4 3.5C3.72386 3.5 3.5 3.72386 3.5 4C3.5 4.27614 3.72386 4.5 4 4.5L4 3.5ZM4.85355 4.35355C5.04882 4.15829 5.04882 3.84171 4.85355 3.64645L1.67157 0.464465C1.47631 0.269203 1.15973 0.269203 0.964467 0.464465C0.769205 0.659727 0.769205 0.97631 0.964467 1.17157L3.79289 4L0.964465 6.82843C0.769203 7.02369 0.769203 7.34027 0.964465 7.53553C1.15973 7.7308 1.47631 7.7308 1.67157 7.53553L4.85355 4.35355ZM4 4L4 4.5L4.5 4.5L4.5 4L4.5 3.5L4 3.5L4 4Z" fill="#FFFAEE"/>
</svg>
