<svg width="50" height="50" viewBox="0 0 50 50" fill="none" xmlns="http://www.w3.org/2000/svg">
<g clip-path="url(#clip0_540_927)">
<path d="M35.38 12.1896C35.09 12.1896 34.8 12.0796 34.58 11.8696L25 2.77957L15.49 11.8596C15.02 12.3096 14.28 12.2896 13.84 11.8196C13.39 11.3496 13.41 10.6096 13.88 10.1696L24.19 0.31957C24.64 -0.11043 25.35 -0.11043 25.8 0.31957L36.18 10.1696C36.65 10.6096 36.67 11.3496 36.22 11.8196C35.99 12.0596 35.68 12.1796 35.37 12.1796L35.38 12.1896Z" fill="white"/>
<path d="M25.0001 18.18C24.3601 18.18 23.8301 17.66 23.8301 17.01V1.17C23.8301 0.53 24.3501 0 25.0001 0C25.6501 0 26.1701 0.52 26.1701 1.17V17.01C26.1701 17.65 25.6501 18.18 25.0001 18.18Z" fill="white"/>
<path d="M25.0001 50.0002C24.3601 50.0002 23.8301 49.4802 23.8301 48.8302V37.4102C23.8301 36.7702 24.3501 36.2402 25.0001 36.2402C25.6501 36.2402 26.1701 36.7602 26.1701 37.4102V48.8302C26.1701 49.4702 25.6501 50.0002 25.0001 50.0002Z" fill="white"/>
<path d="M20.85 38.7505C17.35 38.7505 12.36 37.9805 8.91999 34.1705C6.94999 32.0005 5.76999 28.8005 5.39999 24.6605C5.12999 21.6505 5.40999 19.2705 5.42999 19.1705C5.48999 18.7005 5.81999 18.3105 6.27999 18.1805C6.58999 18.0905 14 16.1105 20.76 20.7605C23.78 22.8305 25.61 26.4005 26.06 31.0805C26.39 34.5105 25.87 37.3305 25.85 37.4505C25.76 37.9105 25.4 38.2805 24.94 38.3805C24.77 38.4105 23.13 38.7405 20.86 38.7405L20.85 38.7505ZM7.67999 20.2805C7.53999 22.5705 7.44999 29.0705 10.65 32.6005C14.59 36.9505 21.35 36.5205 23.66 36.2205C23.95 33.7305 24.4 26.1005 19.43 22.6905C14.77 19.4805 9.59999 19.9505 7.66999 20.2705L7.67999 20.2805Z" fill="white"/>
<path d="M29.1502 38.7502C26.8702 38.7502 25.2302 38.4202 25.0702 38.3902C24.6102 38.2902 24.2502 37.9302 24.1602 37.4602C24.1402 37.3402 23.6202 34.5202 23.9502 31.0902C24.4002 26.4102 26.2302 22.8402 29.2502 20.7702C36.0102 16.1202 43.4202 18.1002 43.7302 18.1902C44.1902 18.3202 44.5202 18.7102 44.5802 19.1802C44.5902 19.2802 44.8702 21.6602 44.6102 24.6702C44.2402 28.8102 43.0602 32.0002 41.0902 34.1802C37.6502 37.9802 32.6502 38.7602 29.1602 38.7602L29.1502 38.7502ZM26.3402 36.2202C28.6502 36.5202 35.4102 36.9502 39.3502 32.6002C42.5502 29.0702 42.4602 22.5702 42.3202 20.2802C40.3902 19.9502 35.2302 19.4902 30.5602 22.7002C25.6002 26.1102 26.0402 33.7402 26.3302 36.2302L26.3402 36.2202Z" fill="white"/>
</g>
<defs>
<clipPath id="clip0_540_927">
<rect width="50" height="50" fill="white"/>
</clipPath>
</defs>
</svg>
