<svg width="50" height="50" viewBox="0 0 50 50" fill="none" xmlns="http://www.w3.org/2000/svg">
<g clip-path="url(#clip0_534_788)">
<path d="M28.7 49.2499C26.62 49.2499 24.73 48.8899 23.18 48.1899C18.57 46.0999 12.34 46.3899 12.27 46.3899C11.66 46.4199 11.15 45.9499 11.12 45.3499C11.09 44.7399 11.56 44.2299 12.16 44.1899C12.44 44.1799 18.98 43.8699 24.09 46.1799C26.23 47.1499 29.35 47.3099 32.66 46.6099C36.08 45.8899 39.35 44.3599 41.86 42.3199C45 39.7699 47.72 37.5599 47.8 35.8299C47.84 35.0999 47.4 34.2899 46.47 33.3699C45.06 31.9599 44.05 32.5299 41.29 34.6699C39.59 35.9899 37.67 37.4799 35.21 38.1099C29.45 39.5999 25.95 39.0499 25.8 39.0199C25.2 38.9199 24.79 38.3499 24.89 37.7499C24.99 37.1499 25.56 36.7499 26.16 36.8399C27.26 37.0099 30.45 37.0599 34.66 35.9699C36.67 35.4499 38.41 34.0999 39.94 32.9199C41.21 31.9299 42.42 30.9999 43.68 30.5999C45.26 30.0999 46.72 30.4999 48.03 31.7999C49.43 33.1899 50.07 34.5399 50 35.9299C49.86 38.6399 47.09 40.8999 43.25 44.0199C40.47 46.2799 36.87 47.9599 33.12 48.7599C31.59 49.0799 30.11 49.2399 28.71 49.2399L28.7 49.2499Z" fill="#607697"/>
<path d="M33.73 38.4296C33.23 38.4296 32.78 38.0896 32.66 37.5896C32.53 37.0596 32.82 36.5196 33.31 36.3196C33.68 35.7296 33.86 33.1796 33.63 31.6796C33.6 31.6096 32.72 30.0896 24.29 29.1096C18.22 28.4096 13.07 33.8396 13.02 33.8896C12.61 34.3296 11.91 34.3596 11.47 33.9496C11.03 33.5396 11 32.8396 11.41 32.3996C11.65 32.1396 17.36 26.0896 24.54 26.9296C34.19 28.0496 35.58 29.9796 35.8 31.3296C35.92 32.0996 35.99 33.5696 35.85 34.9496C35.78 35.7096 35.55 38.0296 33.99 38.4096C33.9 38.4296 33.82 38.4396 33.73 38.4396V38.4296Z" fill="#607697"/>
<path d="M32.4899 21.0596C32.2399 21.0596 31.9999 20.9596 31.8299 20.7696L22.5299 10.8996C22.4599 10.8196 20.7099 8.88958 20.8899 6.30958C21.0099 4.63958 21.8799 3.12958 23.4899 1.80958C24.7699 0.759576 26.1799 0.299576 27.6899 0.449576C29.8299 0.659576 31.5999 2.06958 32.5299 2.96958C33.0599 2.47958 33.8499 1.83958 34.7999 1.32958C37.2599 0.00957623 39.5899 0.179576 41.5299 1.81958C43.0599 3.11958 43.9299 4.61958 44.0999 6.27958C44.2699 7.93958 43.6999 9.59958 42.5299 10.8496L33.1699 20.7896C32.9999 20.9696 32.7599 21.0796 32.5099 21.0796L32.4899 21.0596ZM23.8599 9.65958L32.4899 18.8196L41.1899 9.58958C41.9999 8.72958 42.3999 7.58958 42.2799 6.45958C42.1599 5.27958 41.5099 4.18958 40.3399 3.19958C38.9899 2.05958 37.4699 1.95958 35.6799 2.89958C34.2299 3.66958 33.1899 4.84958 33.1799 4.85958C32.9999 5.05958 32.7499 5.17958 32.4799 5.16958C32.2099 5.16958 31.9599 5.03958 31.7899 4.83958C31.7599 4.80958 30.7799 3.62958 29.3699 2.86958C27.6199 1.91958 26.0699 2.02958 24.6399 3.20958C23.4399 4.19958 22.7899 5.26958 22.7099 6.40958C22.5799 8.14958 23.7999 9.56958 23.8699 9.64958L23.8599 9.65958Z" fill="#607697"/>
<path d="M10.05 49.5795H2.68C1.2 49.5795 0 48.3795 0 46.8995V29.1995C0 27.7195 1.2 26.5195 2.68 26.5195H10.05C11.53 26.5195 12.73 27.7195 12.73 29.1995V46.8995C12.73 48.3795 11.53 49.5795 10.05 49.5795ZM2.68 28.7195C2.42 28.7195 2.2 28.9395 2.2 29.1995V46.8995C2.2 47.1595 2.42 47.3795 2.68 47.3795H10.05C10.31 47.3795 10.53 47.1595 10.53 46.8995V29.1995C10.53 28.9395 10.31 28.7195 10.05 28.7195H2.68Z" fill="#607697"/>
</g>
<defs>
<clipPath id="clip0_534_788">
<rect width="50" height="50" fill="white"/>
</clipPath>
</defs>
</svg>
