<svg width="50" height="50" viewBox="0 0 50 50" fill="none" xmlns="http://www.w3.org/2000/svg">
<path d="M25.0001 43.3502C24.3601 43.3502 23.8501 42.8402 23.8501 42.2002V36.3102C23.8501 35.6702 24.3601 35.1602 25.0001 35.1602C25.6401 35.1602 26.1501 35.6702 26.1501 36.3102V42.2002C26.1501 42.8402 25.6401 43.3502 25.0001 43.3502Z" fill="white"/>
<path d="M25.0001 14.0496C24.3601 14.0496 23.8501 13.5396 23.8501 12.8996V7.78965C23.8501 7.14965 24.3601 6.63965 25.0001 6.63965C25.6401 6.63965 26.1501 7.14965 26.1501 7.78965V12.8996C26.1501 13.5396 25.6401 14.0496 25.0001 14.0496Z" fill="white"/>
<path d="M48.85 43.3498H1.15C0.51 43.3498 0 42.8398 0 42.1998C0 41.5598 0.51 41.0498 1.15 41.0498H48.85C49.49 41.0498 50 41.5598 50 42.1998C50 42.8398 49.49 43.3498 48.85 43.3498Z" fill="white"/>
<path d="M29.2199 8.95039H20.7899C20.1499 8.95039 19.6399 8.44039 19.6399 7.80039C19.6399 7.16039 20.1499 6.65039 20.7899 6.65039H29.2199C29.8599 6.65039 30.3699 7.16039 30.3699 7.80039C30.3699 8.44039 29.8599 8.95039 29.2199 8.95039Z" fill="white"/>
<path d="M10.4199 28.8195C10.2499 28.8195 10.0699 28.7795 9.89992 28.6995C9.32992 28.4095 9.10992 27.7195 9.38992 27.1495C11.8599 22.2795 16.0399 18.5495 21.1599 16.6695C21.7599 16.4495 22.4199 16.7595 22.6399 17.3495C22.8599 17.9495 22.5499 18.6095 21.9599 18.8295C17.3899 20.5095 13.6499 23.8395 11.4499 28.1895C11.2499 28.5895 10.8399 28.8195 10.4199 28.8195Z" fill="white"/>
<path d="M42.57 37.4598H7.42998C5.24998 37.4598 3.47998 35.6898 3.47998 33.5098V33.2798C3.47998 27.5298 5.71998 22.1298 9.77998 18.0598C13.84 13.9998 19.25 11.7598 25 11.7598C30.75 11.7598 36.15 13.9998 40.22 18.0598C44.28 22.1198 46.52 27.5298 46.52 33.2798V33.5098C46.52 35.6898 44.75 37.4598 42.57 37.4598ZM25 14.0498C14.4 14.0498 5.77998 22.6698 5.77998 33.2698V33.4998C5.77998 34.4098 6.51998 35.1498 7.42998 35.1498H42.57C43.48 35.1498 44.22 34.4098 44.22 33.4998V33.2698C44.22 22.6698 35.6 14.0498 25 14.0498Z" fill="white"/>
</svg>
