<svg width="50" height="50" viewBox="0 0 50 50" fill="none" xmlns="http://www.w3.org/2000/svg">
<g clip-path="url(#clip0_540_817)">
<path d="M1.14023 43.4795C0.500234 43.4795 -0.00976562 42.9695 -0.00976562 42.3295V7.66953C-0.00976562 7.02953 0.500234 6.51953 1.14023 6.51953C1.78023 6.51953 2.29023 7.02953 2.29023 7.66953V42.3295C2.29023 42.9695 1.78023 43.4795 1.14023 43.4795Z" fill="#607697"/>
<path d="M48.86 43.4804C48.22 43.4804 47.71 42.9704 47.71 42.3304V19.0104C47.71 18.3704 48.22 17.8604 48.86 17.8604C49.5 17.8604 50.01 18.3704 50.01 19.0104V42.3304C50.01 42.9704 49.5 43.4804 48.86 43.4804Z" fill="#607697"/>
<path d="M47.1602 32.5602H2.84023C1.27023 32.5602 -0.00976562 31.2802 -0.00976562 29.7102V24.8002C-0.00976562 23.2302 1.27023 21.9502 2.84023 21.9502H47.1702C48.7402 21.9502 50.0202 23.2302 50.0202 24.8002V29.7102C50.0202 31.2802 48.7402 32.5602 47.1702 32.5602H47.1602ZM2.84023 24.2402C2.54023 24.2402 2.29023 24.4902 2.29023 24.7902V29.7002C2.29023 30.0002 2.54023 30.2502 2.84023 30.2502H47.1702C47.4702 30.2502 47.7202 30.0002 47.7202 29.7002V24.7902C47.7202 24.4902 47.4702 24.2402 47.1702 24.2402H2.84023Z" fill="#607697"/>
<path d="M14.6602 24.2395H4.10023C1.83023 24.2395 -0.00976562 22.3995 -0.00976562 20.1295C-0.00976562 17.8595 1.84023 16.0195 4.10023 16.0195H14.6602C16.9302 16.0195 18.7702 17.8695 18.7702 20.1295C18.7702 22.3895 16.9202 24.2395 14.6602 24.2395ZM4.10023 18.3095C3.10023 18.3095 2.29023 19.1195 2.29023 20.1195C2.29023 21.1195 3.10023 21.9295 4.10023 21.9295H14.6602C15.6602 21.9295 16.4702 21.1195 16.4702 20.1195C16.4702 19.1195 15.6602 18.3095 14.6602 18.3095H4.10023Z" fill="#607697"/>
</g>
<defs>
<clipPath id="clip0_540_817">
<rect width="50" height="50" fill="white"/>
</clipPath>
</defs>
</svg>
