<svg width="9" height="9" viewBox="0 0 9 9" fill="none" xmlns="http://www.w3.org/2000/svg">
<path d="M0.646447 7.64645C0.451184 7.84171 0.451184 8.15829 0.646447 8.35355C0.841709 8.54882 1.15829 8.54882 1.35355 8.35355L0.646447 7.64645ZM8.57107 0.928932C8.57107 0.65279 8.34721 0.428932 8.07107 0.428932L3.57107 0.428932C3.29493 0.428932 3.07107 0.65279 3.07107 0.928932C3.07107 1.20507 3.29493 1.42893 3.57107 1.42893L7.57107 1.42893L7.57107 5.42893C7.57107 5.70507 7.79493 5.92893 8.07107 5.92893C8.34721 5.92893 8.57107 5.70507 8.57107 5.42893L8.57107 0.928932ZM1 8L1.35355 8.35355L8.42462 1.28249L8.07107 0.928932L7.71751 0.575379L0.646447 7.64645L1 8Z" fill="#314A70"/>
</svg>
