<svg width="50" height="50" viewBox="0 0 50 50" fill="none" xmlns="http://www.w3.org/2000/svg">
<g clip-path="url(#clip0_540_830)">
<path d="M46.52 50.0005H3.48005C2.52005 50.0005 1.60005 49.6005 0.950047 48.9005C0.300047 48.2005 -0.0499529 47.2605 0.0100471 46.3005L1.46005 23.1005C1.50005 22.4705 2.04005 22.0005 2.66005 22.0405C3.29005 22.0805 3.76005 22.6205 3.72005 23.2405L2.27005 46.4405C2.25005 46.7805 2.36005 47.1005 2.59005 47.3405C2.82005 47.5805 3.13005 47.7205 3.47005 47.7205H46.51C47.17 47.7205 47.72 47.1805 47.72 46.5105V25.7705L39.52 33.3705C39.19 33.6805 38.71 33.7605 38.29 33.5805C37.87 33.4005 37.61 32.9905 37.61 32.5405V25.6005L28.25 33.4105C27.91 33.6905 27.44 33.7505 27.04 33.5705C26.64 33.3805 26.39 32.9805 26.39 32.5405V25.5905L16.94 33.4205C16.61 33.6905 16.16 33.7605 15.76 33.5905C15.37 33.4205 15.1 33.0405 15.08 32.6205L14.52 23.2505C14.48 22.6205 14.96 22.0905 15.59 22.0505C16.22 22.0105 16.75 22.4905 16.79 23.1205L17.21 30.2505L26.79 22.3105C27.13 22.0305 27.6 21.9705 28 22.1605C28.4 22.3505 28.65 22.7505 28.65 23.1905V30.1305L38.01 22.3205C38.35 22.0405 38.82 21.9805 39.22 22.1605C39.62 22.3505 39.87 22.7505 39.87 23.1905V29.9605L48.07 22.3605C48.4 22.0505 48.88 21.9705 49.3 22.1505C49.71 22.3305 49.98 22.7405 49.98 23.1905V46.5305C49.98 48.4505 48.42 50.0105 46.5 50.0105L46.52 50.0005Z" fill="#607697"/>
<path d="M2.58989 24.3096C2.56989 24.3096 2.53989 24.3096 2.51989 24.3096C1.88989 24.2696 1.41989 23.7296 1.45989 23.1096L2.18989 11.3996C2.20989 11.0596 2.37989 10.7496 2.65989 10.5496C2.93989 10.3496 3.28989 10.2896 3.61989 10.3796C7.23989 11.3496 11.0599 11.3496 14.6699 10.3796C14.9999 10.2896 15.3499 10.3596 15.6299 10.5596C15.9099 10.7596 16.0799 11.0696 16.0999 11.4096L16.7999 23.1196C16.8399 23.7496 16.3599 24.2796 15.7299 24.3196C15.0999 24.3596 14.5699 23.8796 14.5299 23.2496L13.9099 12.8896C10.7699 13.5396 7.51989 13.5396 4.36989 12.8896L3.71989 23.2496C3.67989 23.8496 3.17989 24.3096 2.58989 24.3096Z" fill="#607697"/>
<path d="M7.16978 8.75039C6.53978 8.75039 6.02979 8.24039 6.02979 7.61039V5.79039C6.02979 5.16039 6.53978 4.65039 7.16978 4.65039C7.79979 4.65039 8.30979 5.16039 8.30979 5.79039V7.61039C8.30979 8.24039 7.79979 8.75039 7.16978 8.75039Z" fill="#607697"/>
<path d="M8.08012 7.83957H6.26012C5.63012 7.83957 5.12012 7.32957 5.12012 6.69957C5.12012 6.06957 5.63012 5.55957 6.26012 5.55957H8.08012C8.71012 5.55957 9.22012 6.06957 9.22012 6.69957C9.22012 7.32957 8.71012 7.83957 8.08012 7.83957Z" fill="#607697"/>
<path d="M12.2499 4.84023C11.6199 4.84023 11.1099 4.33023 11.1099 3.70023V1.88023C11.1099 1.25023 11.6199 0.740234 12.2499 0.740234C12.8799 0.740234 13.3899 1.25023 13.3899 1.88023V3.70023C13.3899 4.33023 12.8799 4.84023 12.2499 4.84023Z" fill="#607697"/>
<path d="M13.1602 3.94016H11.3402C10.7102 3.94016 10.2002 3.43016 10.2002 2.80016C10.2002 2.17016 10.7102 1.66016 11.3402 1.66016H13.1602C13.7902 1.66016 14.3002 2.17016 14.3002 2.80016C14.3002 3.43016 13.7902 3.94016 13.1602 3.94016Z" fill="#607697"/>
</g>
<defs>
<clipPath id="clip0_540_830">
<rect width="50" height="50" fill="white"/>
</clipPath>
</defs>
</svg>
