<svg width="50" height="50" viewBox="0 0 50 50" fill="none" xmlns="http://www.w3.org/2000/svg">
<path d="M36.7302 45.8998C37.8734 45.8998 38.8002 44.973 38.8002 43.8298C38.8002 42.6865 37.8734 41.7598 36.7302 41.7598C35.5869 41.7598 34.6602 42.6865 34.6602 43.8298C34.6602 44.973 35.5869 45.8998 36.7302 45.8998Z" fill="#607697"/>
<path d="M23.28 45.8998C24.4232 45.8998 25.35 44.973 25.35 43.8298C25.35 42.6865 24.4232 41.7598 23.28 41.7598C22.1367 41.7598 21.21 42.6865 21.21 43.8298C21.21 44.973 22.1367 45.8998 23.28 45.8998Z" fill="#607697"/>
<path d="M40.7499 40.4797H20.2199C17.7199 40.4797 15.6899 38.4497 15.6899 35.9497V34.7097C15.6899 32.2097 17.7199 30.1797 20.2199 30.1797H26.4999C27.1199 30.1797 27.6199 30.6797 27.6199 31.2997C27.6199 31.9197 27.1199 32.4197 26.4999 32.4197H20.2199C18.9599 32.4197 17.9399 33.4397 17.9399 34.6997V35.9397C17.9399 37.1997 18.9599 38.2197 20.2199 38.2197H40.7499C41.3699 38.2197 41.8699 38.7197 41.8699 39.3397C41.8699 39.9597 41.3699 40.4597 40.7499 40.4597V40.4797Z" fill="#607697"/>
<path d="M40.75 32.4296H22.42C20.6 32.4296 18.82 31.8096 17.41 30.6996C11.28 25.8496 10.94 19.1496 10.63 13.2396C10.61 12.9296 10.6 12.6096 10.58 12.2996C10.51 10.9196 10.27 9.73961 9.87 8.77961C9.26 7.31961 7.73 6.33961 6.07 6.33961H1.12C0.5 6.33961 0 5.83961 0 5.21961C0 4.59961 0.5 4.09961 1.12 4.09961H6.06C8.66 4.09961 10.97 5.59961 11.94 7.91961C12.44 9.10961 12.73 10.5396 12.82 12.1796C12.84 12.4896 12.85 12.8096 12.87 13.1196C13.16 18.8196 13.46 24.7196 18.8 28.9296C19.82 29.7396 21.11 30.1796 22.42 30.1796H40.75C42 30.1796 43.14 29.4496 43.66 28.3196L47.49 18.1296C47.96 16.8796 47.79 15.5396 47.03 14.4496C46.27 13.3596 45.07 12.7296 43.74 12.7296H18.87C18.25 12.7296 17.75 12.2296 17.75 11.6096C17.75 10.9896 18.25 10.4896 18.87 10.4896H43.74C45.79 10.4896 47.71 11.4996 48.87 13.1796C50.04 14.8596 50.3 17.0096 49.58 18.9296L45.74 29.1596C45.74 29.1796 45.72 29.1996 45.71 29.2296C44.83 31.1796 42.88 32.4496 40.73 32.4496L40.75 32.4296Z" fill="#607697"/>
<path d="M9.26014 20.4698H1.12014C0.720137 20.4698 0.390137 20.1398 0.390137 19.7398C0.390137 19.3398 0.720137 19.0098 1.12014 19.0098H9.25014C9.65014 19.0098 9.98014 19.3398 9.98014 19.7398C9.98014 20.1398 9.65014 20.4698 9.25014 20.4698H9.26014Z" fill="#607697"/>
<path d="M10.57 24.9102H2.43996C2.03996 24.9102 1.70996 24.5802 1.70996 24.1802C1.70996 23.7802 2.03996 23.4502 2.43996 23.4502H10.57C10.97 23.4502 11.3 23.7802 11.3 24.1802C11.3 24.5802 10.97 24.9102 10.57 24.9102Z" fill="#607697"/>
</svg>
