<svg width="27" height="21" viewBox="0 0 27 21" fill="none" xmlns="http://www.w3.org/2000/svg">
<path d="M0.703125 18.5469V12.7812C0.703125 11.6562 1.03125 10.5469 1.6875 9.45312L6.9375 0.3125H10.7812L6.375 10.3906H8.85938C9.57812 10.3906 10.0781 10.5469 10.3594 10.8594C10.6406 11.1406 10.7812 11.625 10.7812 12.3125V18.5469C10.7812 19.2656 10.6406 19.7656 10.3594 20.0469C10.0781 20.3281 9.57812 20.4688 8.85938 20.4688H2.625C1.9375 20.4688 1.4375 20.3281 1.125 20.0469C0.84375 19.7656 0.703125 19.2656 0.703125 18.5469ZM16.5469 18.5469V12.7812C16.5469 11.6562 16.875 10.5469 17.5312 9.45312L22.7812 0.3125H26.625L22.2188 10.3906H24.7031C25.4219 10.3906 25.9219 10.5469 26.2031 10.8594C26.4844 11.1406 26.625 11.625 26.625 12.3125V18.5469C26.625 19.2656 26.4844 19.7656 26.2031 20.0469C25.9219 20.3281 25.4219 20.4688 24.7031 20.4688H18.4688C17.7812 20.4688 17.2812 20.3281 16.9688 20.0469C16.6875 19.7656 16.5469 19.2656 16.5469 18.5469Z" fill="white"/>
</svg>
